<svg width="64" height="64" viewBox="0 0 64 64" fill="none" xmlns="http://www.w3.org/2000/svg">
  <rect width="64" height="64" rx="14" fill="#0A1D3D"/>
  <path d="M25.6 13C15.1 13 6.5 21.5 6.5 32s8.6 19 19.1 19c8.9 0 16.6-6.4 18.5-14.9h-8.5c-1.7 4-5.6 6.8-10 6.8-5.9 0-10.7-4.9-10.7-10.9s4.8-10.9 10.7-10.9c4.5 0 8.4 2.8 10 6.8h8.5C42.2 19.4 34.5 13 25.6 13Z" fill="#FFFFFF"/>
  <path d="M39.6 31.5H48.8L54.7 42L64 18.5V36L59.4 50H52.1L39.6 31.5Z" fill="#1D73B8"/>
  <path d="M18.3 39.4C27.2 27.6 37.6 25.1 49.7 30.3C55 32.6 59.8 31.5 64 27.6" stroke="#0A1D3D" stroke-width="8.4" stroke-linecap="round"/>
  <path d="M19.8 38.7C28 29.1 37.7 26.8 49.5 31.5C54.7 33.6 59.4 32.5 64 28.2" stroke="#1D73B8" stroke-width="4.5" stroke-linecap="round"/>
</svg>
